<svg width="217" height="32" viewBox="0 0 217 32" fill="none" xmlns="http://www.w3.org/2000/svg">
<path d="M24.684 10.296V0.968001H0V10.296H4.62V5.588H10.032V26.356H5.324V30.976H19.36V26.356H14.652V5.588H20.064V10.296H24.684Z" fill="white"/>
<path d="M33.0911 7.744C33.0911 6.556 34.0591 5.544 35.2911 5.544H40.7911C42.9471 5.544 44.6631 7.304 44.6631 9.416C44.6631 11.528 42.9031 13.288 40.7471 13.288H33.5751C33.2671 11.352 33.0911 9.504 33.0911 7.744ZM34.7191 17.908H39.4711C39.8671 18.392 40.3951 19.184 41.1431 20.196C41.8911 21.208 42.4631 21.912 42.8151 22.396C43.2111 22.88 43.7391 23.496 44.3991 24.332C45.0591 25.168 45.6311 25.784 46.0711 26.18C46.9951 26.928 48.5791 28.424 49.9431 28.996C52.0111 30.008 54.8271 30.932 58.3031 30.976V26.576C53.1551 26.576 48.5351 23.408 44.4431 17.072C47.2591 15.84 49.2831 12.76 49.2831 9.416C49.2831 7.084 48.4471 5.06 46.7751 3.432C45.1471 1.76 43.1231 0.924001 40.7911 0.924001H35.2911C33.3991 0.924001 31.7711 1.584 30.4511 2.948C29.1311 4.312 28.4711 5.896 28.4711 7.744C28.4711 16.148 31.3751 24.2 37.2271 31.9L40.9231 29.172C37.9751 25.212 35.9071 21.472 34.7191 17.908Z" fill="white"/>
<path d="M90.1326 15.928C90.1326 11.792 88.5926 8.14 85.5126 4.928C82.4766 1.716 78.9126 0.132001 74.8646 0.132001C70.8606 0.132001 67.2966 1.716 64.2166 4.928C61.1806 8.14 59.6406 11.748 59.6406 15.84C59.6406 20.108 61.1366 23.848 64.1726 26.972C67.2086 30.096 70.7726 31.68 74.8646 31.68C78.9566 31.68 82.5206 30.096 85.5566 26.972C88.5926 23.848 90.1326 20.152 90.1326 15.928ZM85.5126 15.928C85.5126 18.832 84.4566 21.428 82.3006 23.672C80.1886 25.916 77.7246 27.06 74.8646 27.06C72.0046 27.06 69.5406 25.916 67.4286 23.672C65.3166 21.428 64.2606 18.832 64.2606 15.928C64.2606 13.024 65.3166 10.428 67.4286 8.184C69.5406 5.896 72.0046 4.752 74.8646 4.752C77.7246 4.752 80.1886 5.896 82.3006 8.14C84.4566 10.384 85.5126 12.98 85.5126 15.928Z" fill="white"/>
<path d="M106.234 20.944C109.974 20.944 112.966 19.844 115.21 17.688C117.498 15.532 118.642 12.936 118.642 9.988C118.642 7.172 117.674 4.84 115.782 2.948C113.89 1.056 111.47 0.132001 108.566 0.132001C106.278 0.132001 104.166 0.572001 102.274 1.408C100.382 2.244 98.1375 3.784 95.5415 6.028L98.5335 9.548C100.602 7.744 102.318 6.512 103.726 5.852C105.134 5.192 106.674 4.796 108.346 4.752C111.866 4.752 114.022 6.776 114.022 9.988C114.022 11.616 113.362 13.112 112.042 14.388C110.722 15.664 108.786 16.324 106.234 16.324C102.318 16.324 100.206 14.652 98.0495 11.528L97.0815 12.144C96.4215 12.584 95.8055 13.024 95.1455 13.464L94.1335 14.08C96.8175 18.7 97.3015 24.332 95.4975 30.976H100.25C100.822 28.732 101.174 26.796 101.218 25.212C101.262 23.584 101.174 21.78 100.866 19.8C102.582 20.548 104.342 20.944 106.234 20.944Z" fill="white"/>
<path d="M127.901 0.968001H123.281V30.976H127.901V0.968001Z" fill="white"/>
<path d="M132.56 15.972C132.472 20.24 134.012 23.936 137.224 27.148C140.436 30.36 144.176 31.856 148.356 31.724C150.512 31.724 153.196 31.02 156.496 29.656L154.736 25.388C151.964 26.532 149.808 27.104 148.356 27.104C145.408 27.236 142.768 26.136 140.48 23.892C138.236 21.604 137.136 18.964 137.18 15.972C137.048 13.024 138.148 10.384 140.392 8.14C142.68 5.852 145.32 4.752 148.312 4.796C149.852 4.796 152.008 5.368 154.736 6.512L156.496 2.244C153.196 0.880002 150.468 0.176 148.312 0.176C144.044 0.0880015 140.348 1.672 137.136 4.884C133.924 8.096 132.428 11.792 132.56 15.972Z" fill="white"/>
<path d="M173.915 0.968001H168.327L157.415 30.976H162.343L164.719 24.376H177.523L179.943 30.976H184.827L173.915 0.968001ZM166.391 19.756L171.099 6.82L175.807 19.756H166.391Z" fill="white"/>
<path d="M193.041 26.356V0.968001H188.421V30.976H203.821V26.356H193.041Z" fill="white"/>
<path d="M215.177 29.172C213.197 26.444 212.185 24.156 212.185 22.308C212.185 20.46 212.713 18.788 213.813 17.292C215.529 14.96 216.365 12.408 216.365 9.592C216.365 6.6 215.309 3.916 212.449 0L208.753 2.728C210.733 5.456 211.745 7.744 211.745 9.592C211.745 11.396 211.173 13.068 210.073 14.564C208.401 16.852 207.565 19.448 207.565 22.308C207.565 25.212 208.885 28.424 211.481 31.9L215.177 29.172Z" fill="white"/>
</svg>
